# xmcd CD database file
#
# Track frame offsets:
#	150
#	12999
#	25851
#	38038
#	49870
#	62242
#	74393
#	87060
#	99358
#	111659
#	123471
#	134269
#	145594
#	157823
#	169464
#	181729
#	194365
#	207914
#	220327
#	230595
#	242856
#	256343
#	264602
#	276606
#	288152
#
# Disc length: 3975 seconds
#
# Revision: 1
# Processed by: cddbd v1.5.2PL0 Copyright (c) Steve Scherf et al.
# Submitted via: CDex 1.70beta1
#
DISCID=780f8519
DTITLE=Hank Williams - The King of Hillbilly Music - CD 2
DYEAR=2005
DGENRE=Country
TTITLE0=Can't Get You Out Of My Mind
TTITLE1=I'm A Long Gone Daddy
TTITLE2=The Blues Come Around
TTITLE3=I'll Be A Bachalor Till I Die
TTITLE4=They'll Never Take Her Love From Me
TTITLE5=Never Again Will I Knock On Your Door
TTITLE6=Pan American
TTITLE7=Fly Trouble
TTITLE8=My Sweet Love Ain't Around
TTITLE9=Why Should We Try Anymore
TTITLE10=Moanin' The Blues
TTITLE11=Nobody's Lonesome For Me
TTITLE12=Howlin' At The Moon
TTITLE13=Dear John
TTITLE14=Cold Cold Heart
TTITLE15=There'll Be No Teardrops Tonight
TTITLE16=I'd Still Want You
TTITLE17=I Won't Be Home No More
TTITLE18=Please Don't Let Me Love You
TTITLE19=Last Nnight I Heard You Crying In Your Sleep
TTITLE20=Too Many Parties And Too Many Pals
TTITLE21=I'm Gonna Sing
TTITLE22=Message To My Mother
TTITLE23=I Heard My Mother Praying For Me
TTITLE24=The Log Train
EXTD=YEAR: 2005
EXTT0=(Williams) 1947
EXTT1=(Williams) 1947
EXTT2=(Williams) 1947
EXTT3=(Williams) 1947
EXTT4=(Payne) 1950
EXTT5=(Williams) 1946
EXTT6=(Williams) 1947
EXTT7=(Biggs/Rose/Wilds) 1947
EXTT8=(Williams) 1947
EXTT9=(Williams) 1950
EXTT10=(Williams) 1950
EXTT11=(Williams) 1950
EXTT12=(Williams) 1951
EXTT13=(Ritter/Gass) 1950
EXTT14=(Williams) 1950
EXTT15=(Williams) 1948
EXTT16=(Williams) 1951
EXTT17=(Williams) 1952
EXTT18=(Jones) 1949
EXTT19=(Williams) 1947
EXTT20=(Dixon/Rose) 1950
EXTT21=(Williams) 1951
EXTT22=(Williams) 1949
EXTT23=(Williams) 1949
EXTT24=(Williams) 1949
PLAYORDER=
